<svg xmlns="http://www.w3.org/2000/svg" xmlns:xlink="http://www.w3.org/1999/xlink" width="398.5194091796875" height="146.1273193359375" viewBox="0 0 398.5194091796875 146.1273193359375" fill="none"><g opacity="1"  transform="translate(0.000732421875 0.002960205078125)"><path id="椭圆 27" fill-rule="evenodd" style="fill:#161616" opacity="1" d="M198.315 141.982C89.0654 141.982 0.505371 142.912 0.505371 144.052C0.505371 145.202 89.0654 146.122 198.315 146.122C307.565 146.122 396.135 145.202 396.135 144.052C396.135 142.912 307.565 141.982 198.315 141.982Z"></path><g opacity="1"  transform="translate(105.2432861328125 83.66883850097656)"><path id="椭圆 28" fill-rule="evenodd" style="fill:#3C4242" opacity="1" d="M37.1954 0.0900421C25.5354 0.0900421 16.0754 13.54 16.0754 30.12C16.0754 46.71 25.5354 60.16 37.1954 60.16C48.8554 60.16 58.3154 46.71 58.3154 30.12C58.3154 13.54 48.8554 0.0900421 37.1954 0.0900421Z"></path><path id="矩形 31" fill-rule="evenodd" style="fill:#3C4242" opacity="1" d="M21.1187 60.16L36.8787 60.16L36.8787 0L21.1187 0L21.1187 60.16Z"></path><path id="椭圆 29" fill-rule="evenodd" style="fill:#161616" opacity="1" d="M21.12 0.0900421C9.46 0.0900421 0 13.54 0 30.12C0 46.71 9.46 60.16 21.12 60.16C32.78 60.16 42.24 46.71 42.24 30.12C42.24 13.54 32.78 0.0900421 21.12 0.0900421Z"></path></g><g opacity="1"  transform="translate(301.479248046875 34.316802978515625)"><path id="路径 164" fill-rule="evenodd" style="fill:#303435" opacity="1" d="M0 7.2031ZM2.39 9.5431L7.61 9.5031C8.87 9.5031 9.86 8.4231 9.82 7.1131C9.77 5.8131 8.69 4.7731 7.43 4.7731L2.21 4.8231C0.95 4.8231 -0.04 5.9031 0 7.2031C0.05 8.5131 1.13 9.5931 2.39 9.5431Z"></path><path id="路径 165" fill-rule="evenodd" style="fill:#DFECF2" opacity="1" d="M16.6206 0ZM16.6206 0L7.61061 0C7.07061 0 6.58061 0.23 6.17061 0.63L2.84061 4.1C2.39061 4.68 2.39061 5.49 2.84061 6.12L5.85061 10.22L16.5706 10.22C17.7906 10.22 18.9106 9.59 19.5906 8.56L20.5806 7.02C21.3006 5.85 21.3006 4.37 20.5806 3.2L19.5906 1.67C18.9606 0.63 17.8306 0 16.6206 0Z"></path><path id="路径 166" fill-rule="evenodd" style="fill:#CBD8DE" opacity="1" d="M15.9391 7.87783ZM15.9391 7.87783L4.09912 7.87783L5.85912 10.2678L16.6191 10.2678C17.8291 10.2678 18.9991 9.63783 19.6391 8.59783L20.6291 7.06783C21.1191 6.25783 21.2591 5.26783 21.0791 4.36783C20.9891 4.50783 20.9391 4.59783 20.8491 4.68783L19.6391 6.21783C18.8191 7.24783 17.4291 7.87783 15.9391 7.87783Z"></path></g><g opacity="1"  transform="translate(316.4754638671875 83.66883850097656)"><path id="椭圆 30" fill-rule="evenodd" style="fill:#3C4242" opacity="1" d="M37.1954 0.0900421C25.5354 0.0900421 16.0754 13.54 16.0754 30.12C16.0754 46.71 25.5354 60.16 37.1954 60.16C48.8554 60.16 58.3154 46.71 58.3154 30.12C58.3154 13.54 48.8554 0.0900421 37.1954 0.0900421Z"></path><path id="矩形 32" fill-rule="evenodd" style="fill:#3C4242" opacity="1" d="M21.1188 60.16L36.8788 60.16L36.8788 0L21.1188 0L21.1188 60.16Z"></path><path id="椭圆 31" fill-rule="evenodd" style="fill:#161616" opacity="1" d="M21.12 0.0900421C9.46 0.0900421 0 13.54 0 30.12C0 46.71 9.46 60.16 21.12 60.16C32.78 60.16 42.24 46.71 42.24 30.12C42.24 13.54 32.78 0.0900421 21.12 0.0900421Z"></path></g><path id="路径 167" fill-rule="evenodd" style="fill:#161616" opacity="1" d="M394.778 126.083ZM398.518 121.993L383.798 74.753L19.4177 74.753L19.4177 111.313L23.4277 122.663L30.4977 126.083L394.778 126.083L398.518 121.993Z"></path><g opacity="1"  transform="translate(25.7216796875 83.66883850097656)"><path id="椭圆 32" fill-rule="evenodd" style="fill:#161616" opacity="1" d="M37.2405 0.0900421C25.5805 0.0900421 16.1205 13.54 16.1205 30.12C16.1205 46.71 25.5805 60.16 37.2405 60.16C48.9005 60.16 58.3605 46.71 58.3605 30.12C58.3605 13.54 48.9005 0.0900421 37.2405 0.0900421Z"></path><path id="矩形 33" fill-rule="evenodd" style="fill:#161616" opacity="1" d="M21.1187 60.16L36.8787 60.16L36.8787 0L21.1187 0L21.1187 60.16Z"></path><path id="椭圆 33" fill-rule="evenodd" style="fill:#3C4242" opacity="1" d="M21.12 0.0900421C9.46 0.0900421 0 13.54 0 30.12C0 46.71 9.46 60.16 21.12 60.16C32.78 60.16 42.24 46.71 42.24 30.12C42.24 13.54 32.78 0.0900421 21.12 0.0900421Z"></path><path id="路径 168" fill-rule="evenodd" style="fill:#7F8A8E" opacity="1" d="M35.525 33.4083ZM35.525 33.4083L35.935 29.4483L25.395 28.3683C25.355 28.1383 25.305 27.9583 25.215 27.7383L32.245 16.0783L28.815 14.0083L22.555 24.3583C22.105 24.1783 21.655 24.0483 21.165 24.0483C21.115 24.0483 21.115 24.0483 21.075 24.0483L17.965 12.7883L14.095 13.8683L17.605 26.5683C17.475 26.8383 17.335 27.1483 17.205 27.4683L8.15499 26.5183L7.745 30.4883L16.795 31.4283C16.885 32.0583 17.025 32.6483 17.205 33.1883L10.805 43.7683L14.225 45.8383L19.905 36.3883C20.035 36.4283 20.215 36.4783 20.355 36.5183L23.955 49.5783L27.825 48.4983L24.135 35.0283C24.725 34.3083 25.175 33.3683 25.395 32.2883L35.525 33.4083Z"></path><path id="椭圆 34" fill-rule="evenodd" style="fill:#7F8A8E" opacity="1" d="M20.6679 17.9216C15.9179 17.9216 12.0679 23.3816 12.0679 30.1216C12.0679 36.8616 15.9179 42.3316 20.6679 42.3316C25.4179 42.3316 29.2679 36.8616 29.2679 30.1216C29.2679 23.3816 25.4179 17.9216 20.6679 17.9216Z"></path><path id="路径 169" fill-rule="evenodd" style="fill:#7F8A8E" opacity="1" d="M19.4093 47.7754ZM19.4093 12.4754L19.4093 8.37543C12.1593 10.2254 6.61926 19.2254 6.61926 30.1254C6.61926 41.0254 12.1093 50.0254 19.4093 51.8754L19.4093 47.7754C13.7293 46.0154 9.45926 38.7654 9.45926 30.1254C9.45926 21.4754 13.7293 14.2254 19.4093 12.4754Z"></path><path id="路径 170" fill-rule="evenodd" style="fill:#DFECF2" opacity="1" d="M20.8436 51.8305C29.2736 51.8305 36.1136 42.1005 36.1136 30.1205C36.1136 18.1505 29.2736 8.42047 20.8436 8.42047C12.4236 8.42047 5.58362 18.1505 5.58362 30.1205C5.58362 42.1005 12.4236 51.8305 20.8436 51.8305ZM33.3253 30.123C33.3253 20.353 27.7353 12.383 20.8453 12.383C13.9553 12.383 8.37532 20.353 8.37532 30.123C8.37532 39.893 13.9553 47.863 20.8453 47.863C27.7353 47.863 33.3253 39.893 33.3253 30.123Z"></path><path id="路径 171" fill-rule="evenodd" style="fill:#DFECF2" opacity="1" d="M34.3993 33.4083ZM6.61926 30.4883L15.6693 31.4283C15.7593 32.0583 15.8993 32.6483 16.0793 33.1883L9.67926 43.7683L13.0993 45.8383L18.7793 36.3883C18.9093 36.4283 19.0893 36.4783 19.2293 36.5183L22.8293 49.5783L26.6993 48.4983L23.0093 35.0283C23.5993 34.3083 24.0493 33.3683 24.2693 32.2883L34.3993 33.4083L34.8093 29.4483L24.2693 28.3683C24.2293 28.1383 24.1793 27.9583 24.0893 27.7383L31.1193 16.0783L27.6893 14.0083L21.4293 24.3583C20.9793 24.1783 20.5293 24.0483 20.0393 24.0483C19.9893 24.0483 19.9893 24.0483 19.9493 24.0483L16.8393 12.7883L12.9693 13.8683L16.4793 26.5683C16.3493 26.8383 16.2093 27.1483 16.0793 27.4683L7.02926 26.5183L6.61926 30.4883Z"></path></g><g opacity="1"  transform="translate(213.4935302734375 83.66883850097656)"><path id="椭圆 35" fill-rule="evenodd" style="fill:#161616" opacity="1" d="M37.1954 0.0900421C25.5354 0.0900421 16.0754 13.54 16.0754 30.12C16.0754 46.71 25.5354 60.16 37.1954 60.16C48.8554 60.16 58.3154 46.71 58.3154 30.12C58.3154 13.54 48.8554 0.0900421 37.1954 0.0900421Z"></path><path id="矩形 34" fill-rule="evenodd" style="fill:#161616" opacity="1" d="M21.1188 60.16L36.8788 60.16L36.8788 0L21.1188 0L21.1188 60.16Z"></path><path id="椭圆 36" fill-rule="evenodd" style="fill:#3C4242" opacity="1" d="M21.12 0.0900421C9.46 0.0900421 0 13.54 0 30.12C0 46.71 9.46 60.16 21.12 60.16C32.78 60.16 42.24 46.71 42.24 30.12C42.24 13.54 32.78 0.0900421 21.12 0.0900421Z"></path><path id="路径 172" fill-rule="evenodd" style="fill:#7F8A8E" opacity="1" d="M35.525 33.4083ZM25.215 27.7383L32.245 16.0783L28.815 14.0083L22.555 24.3583C22.105 24.1783 21.655 24.0483 21.165 24.0483C21.115 24.0483 21.115 24.0483 21.075 24.0483L17.965 12.7883L14.095 13.8683L17.605 26.5683C17.475 26.8383 17.335 27.1483 17.205 27.4683L8.15499 26.5183L7.745 30.4883L16.795 31.4283C16.885 32.0583 17.025 32.6483 17.205 33.1883L10.805 43.7683L14.225 45.8383L19.905 36.3883C20.035 36.4283 20.215 36.4783 20.355 36.5183L23.955 49.5783L27.825 48.4983L24.135 35.0283C24.725 34.3083 25.175 33.3683 25.395 32.2883L35.525 33.4083L35.935 29.4483L25.395 28.3683C25.355 28.1383 25.305 27.9583 25.215 27.7383Z"></path><path id="椭圆 37" fill-rule="evenodd" style="fill:#7F8A8E" opacity="1" d="M20.6679 17.9216C15.9179 17.9216 12.0679 23.3816 12.0679 30.1216C12.0679 36.8616 15.9179 42.3316 20.6679 42.3316C25.4179 42.3316 29.2679 36.8616 29.2679 30.1216C29.2679 23.3816 25.4179 17.9216 20.6679 17.9216Z"></path><path id="路径 173" fill-rule="evenodd" style="fill:#7F8A8E" opacity="1" d="M19.4094 47.7754ZM19.4094 12.4754L19.4094 8.37543C12.1594 10.2254 6.61938 19.2254 6.61938 30.1254C6.61938 41.0254 12.1094 50.0254 19.4094 51.8754L19.4094 47.7754C13.7294 46.0154 9.45938 38.7654 9.45938 30.1254C9.45938 21.4754 13.7294 14.2254 19.4094 12.4754Z"></path><path id="路径 174" fill-rule="evenodd" style="fill:#DFECF2" opacity="1" d="M20.8436 51.8305C29.2736 51.8305 36.1136 42.1005 36.1136 30.1205C36.1136 18.1505 29.2736 8.42047 20.8436 8.42047C12.4236 8.42047 5.58362 18.1505 5.58362 30.1205C5.58362 42.1005 12.4236 51.8305 20.8436 51.8305ZM33.3255 30.123C33.3255 20.353 27.7355 12.383 20.8455 12.383C13.9555 12.383 8.37552 20.353 8.37552 30.123C8.37552 39.893 13.9555 47.863 20.8455 47.863C27.7355 47.863 33.3255 39.893 33.3255 30.123Z"></path><path id="路径 175" fill-rule="evenodd" style="fill:#DFECF2" opacity="1" d="M34.3993 33.4083ZM34.8093 29.4483L24.2693 28.3683C24.2293 28.1383 24.1793 27.9583 24.0893 27.7383L31.1193 16.0783L27.6893 14.0083L21.4293 24.3583C20.9793 24.1783 20.5293 24.0483 20.0393 24.0483C19.9893 24.0483 19.9893 24.0483 19.9493 24.0483L16.8393 12.7883L12.9693 13.8683L16.4793 26.5683C16.3493 26.8383 16.2093 27.1483 16.0793 27.4683L7.02926 26.5183L6.61926 30.4883L15.6693 31.4283C15.7593 32.0583 15.8993 32.6483 16.0793 33.1883L9.67926 43.7683L13.0993 45.8383L18.7793 36.3883C18.9093 36.4283 19.0893 36.4783 19.2293 36.5183L22.8293 49.5783L26.6993 48.4983L23.0093 35.0283C23.5993 34.3083 24.0493 33.3683 24.2693 32.2883L34.3993 33.4083L34.8093 29.4483Z"></path></g><path id="路径 176" fill-rule="evenodd" style="fill:#DFECF2" opacity="1" d="M388.165 76.24ZM251.725 8.33C223.715 -0.18 166.345 -2.25 119.245 2.48C72.1051 7.21 39.3651 39.41 39.3651 39.41L16.0851 42.24L12.8851 48.32L9.10505 61.74L7.89505 75.52L0.145054 84.97C0.145054 84.97 -0.214946 89.34 0.505054 101.28C1.27505 113.21 5.59505 115.46 5.59505 115.46L23.4251 122.66C22.6551 119.38 22.2551 115.91 22.2551 112.26C22.2551 93.49 33.1951 78.22 46.6651 78.22C52.6451 78.22 58.1851 81.24 62.4251 86.28C62.4651 86.33 62.5151 86.42 62.5551 86.46C62.6051 86.55 62.6951 86.6 62.7351 86.69C63.1451 87.18 63.5051 87.68 63.8651 88.17L63.9051 88.22C63.9951 88.35 64.0851 88.44 64.1751 88.58C64.2651 88.71 64.3551 88.85 64.4951 89.03C64.4951 89.07 64.5351 89.07 64.5351 89.12C65.8851 91.14 67.0551 93.4 68.0051 95.78C71.5151 104.34 72.4651 113.66 73.1351 117.17C74.4451 123.97 79.2151 123.61 79.2151 123.61L139.825 123.61L211.645 123.61C210.745 120.05 210.255 116.27 210.255 112.26C210.255 93.49 221.195 78.22 234.655 78.22C244.475 78.22 252.895 86.28 256.765 97.9C260.005 105.73 261.445 113.61 261.895 116.77C262.845 123.56 267.975 123.79 267.975 123.79L316.255 123.2L393.885 123.25L397.795 119.78L394.195 82.05L388.165 76.24C389.465 63.18 383.615 58.99 383.615 58.99C383.615 58.99 375.415 55.98 371.325 54.9C358.485 51.52 319.085 45.62 319.085 45.62C319.085 45.62 279.735 16.85 251.725 8.33Z"></path><path id="路径 177" fill-rule="evenodd" style="fill:#CBD8DE" opacity="1" d="M234.66 77.4952ZM261.9 116.045C262.85 122.845 267.98 123.065 267.98 123.065L316.25 122.485L393.88 122.525L398.11 119.375L394.42 85.3752L316.43 89.8352C316.43 89.8352 286.89 85.1952 272.39 82.9952C269.92 82.6352 267.62 81.5952 266.22 79.5252C258.84 68.5852 254.02 62.5952 234.75 62.5952C219.71 62.5952 208.09 75.1552 202.6 82.4952C200.44 85.3752 196.52 86.3251 193.28 84.7052C184.99 80.5152 170.22 73.1752 165.4 71.1952C158.6 68.3552 106.37 66.8252 96.33 66.6452C89.75 66.5152 83.9 74.2152 80.66 79.5252C79.35 81.6452 76.33 81.7352 74.89 79.6652C66.79 67.8152 60.26 64.9352 47.2 63.3652C28.15 61.0652 19.06 78.5852 10.91 83.6652C6.67 86.3251 2.8 85.9652 0.06 85.0152C-0.04 86.7352 -0.08 91.4152 0.46 100.505C1.23 112.445 5.55 114.695 5.55 114.695L23.38 121.895C22.61 118.615 22.21 115.145 22.21 111.495C22.21 92.7152 33.15 77.4552 46.62 77.4552C52.6 77.4552 58.14 80.4752 62.38 85.5152C62.42 85.5552 62.47 85.6452 62.51 85.6952C62.69 85.8752 62.83 86.1052 63.01 86.2852C63.32 86.5952 63.55 86.9552 63.82 87.3652C63.86 87.4052 63.86 87.4552 63.91 87.4552C64 87.5852 64.09 87.6752 64.18 87.8152C64.27 87.9452 64.36 88.0852 64.49 88.2652C64.49 88.3052 64.54 88.3052 64.54 88.3552C65.89 90.3752 67.06 92.6252 68 95.0152C71.52 103.575 72.46 112.895 73.14 116.405C74.44 123.205 79.22 122.845 79.22 122.845L139.83 122.845L211.65 122.845C210.75 119.285 210.25 115.505 210.25 111.495C210.25 92.7152 221.19 77.4952 234.66 77.4952C244.47 77.4952 252.89 85.5552 256.77 97.1752C260.01 105.015 261.45 112.895 261.9 116.045Z"></path><g opacity="1"  transform="translate(5.23345947265625 91.35414123535156)"><path id="路径 178" fill-rule="evenodd" style="fill:#95A4AD" opacity="1" d="M204.789 24.2855ZM74.749 24.6955L67.769 24.6955C67.859 25.0955 67.909 25.5055 67.949 25.8155C69.259 32.6155 73.979 32.2555 73.979 32.2555L134.369 32.2555L206.009 32.2555C205.379 29.7355 204.969 27.0755 204.789 24.2855L199.749 24.6955L74.749 24.6955Z"></path><path id="路径 179" fill-rule="evenodd" style="fill:#95A4AD" opacity="1" d="M0 23.7865ZM17.07 23.5665C15.4 23.6965 14.05 20.7765 13.19 23.3865C12.16 26.5365 0 23.7865 0 23.7865L18.15 31.3065C17.56 28.8365 17.2 26.2665 17.07 23.5665Z"></path><path id="路径 180" fill-rule="evenodd" style="fill:#95A4AD" opacity="1" d="M280.441 1.01ZM256.761 25.41C257.701 32.26 262.831 32.44 262.831 32.44L311.291 31.85L389.101 31.9L392.791 27.98L389.681 0.78L309.891 1.5C309.891 1.5 309.891 1.5 309.891 1.5C309.931 1.5 286.201 -1.52 280.441 1.01C271.931 4.79 268.731 22.17 264.371 21.58C260.001 21 260.761 19.69 260.761 19.69L255.811 20.1C256.311 22.35 256.621 24.2 256.761 25.41ZM309.891 1.5C309.891 1.5 309.891 1.5 309.891 1.5Z"></path></g><path id="路径 181" fill-rule="evenodd" style="fill:#F2FAFF" opacity="1" d="M16.0405 42.2001ZM16.0405 42.2001L61.8305 48.2801L124.65 52.2401L204.53 56.4301L266.45 57.3701L224.26 50.1701L208.72 49.0401L40.6305 39.3601L16.0405 42.2001Z"></path><path id="路径 182" fill-rule="evenodd" style="fill:#F2FAFF" opacity="1" d="M243.393 48.4557ZM364.473 55.0257C356.323 53.1357 334.083 49.7157 323.953 48.0057L243.393 48.4557L313.323 54.5357L364.473 55.0257Z"></path><path id="路径 183" fill-rule="evenodd" style="fill:#95A4AD" opacity="1" d="M235.553 71.2408ZM261.943 116.761C262.393 120.141 263.923 121.901 265.323 122.801C265.723 120.051 265.903 117.211 265.903 114.291C265.863 90.5608 252.263 71.2408 235.553 71.2408C218.803 71.2408 205.253 90.5608 205.253 114.331C205.253 117.531 205.483 120.591 205.973 123.611L211.693 123.611C210.793 120.051 210.293 116.271 210.293 112.261C210.293 93.4808 221.243 78.2208 234.703 78.2208C244.523 78.2208 252.943 86.2808 256.813 97.9008C260.053 105.731 261.493 113.611 261.943 116.761Z"></path><path id="路径 184" fill-rule="evenodd" style="fill:#95A4AD" opacity="1" d="M47.4669 73.132ZM18.3369 114.512C18.3369 116.632 18.4269 118.702 18.6569 120.732L23.4669 122.662C22.7069 119.372 22.2969 115.912 22.2969 112.262C22.2969 93.482 33.2369 78.222 46.7069 78.222C52.6969 78.222 58.2369 81.242 62.4669 86.282C62.5069 86.322 62.5569 86.412 62.5969 86.462C62.6469 86.552 62.7369 86.592 62.7769 86.682C63.1869 87.182 63.5469 87.672 63.9069 88.172L63.9469 88.212C64.0369 88.352 64.1269 88.442 64.2169 88.582C64.3069 88.712 64.3969 88.852 64.5369 89.032C64.5369 89.072 64.5869 89.072 64.5869 89.122C65.9369 91.142 67.1069 93.392 68.0469 95.782C71.5569 104.342 72.5069 113.662 73.1869 117.172C73.7269 120.012 74.8969 121.632 76.0169 122.482C76.3769 119.922 76.5569 117.262 76.5569 114.512C76.5569 91.682 63.5469 73.132 47.4669 73.132C31.3969 73.132 18.3369 91.682 18.3369 114.512Z"></path><path id="路径 185" fill-rule="evenodd" style="fill:#F2FAFF" opacity="1" d="M297.156 80.3807ZM319.586 84.2507L392.216 80.3407L388.116 76.1907L388.566 71.2907C382.846 71.6907 354.746 71.8707 344.796 71.7407C334.846 71.6007 293.646 71.1507 293.646 71.1507L297.156 80.3807C303.466 82.0507 319.626 84.3007 319.586 84.2507Z"></path><path id="路径 186" fill-rule="evenodd" style="fill:#F2FAFF" opacity="1" d="M176.521 106.772ZM86.0609 111.682L196.611 111.682L176.521 106.772L100.061 103.752L86.0609 111.682Z"></path><g opacity="1"  transform="translate(68.994873046875 52.675323486328125)"><path id="路径 187" fill-rule="evenodd" style="fill:#95A4AD" opacity="1" d="M15.9901 3.35ZM3.83014 0.01C2.30014 -0.12 0.900142 0.78 0.270142 2.08L15.9901 3.35C15.5801 1.95 14.3201 0.87 12.7901 0.73L3.83014 0.01Z"></path><path id="路径 188" fill-rule="evenodd" style="fill:#95A4AD" opacity="1" d="M0 4.47128ZM12.2 7.98128C13.82 8.12128 15.26 7.13128 15.85 5.73128L0 4.47128C0.36 5.96128 1.62 7.13128 3.24 7.26128L12.2 7.98128Z"></path></g><g opacity="1"  transform="translate(132.3509521484375 56.244476318359375)"><path id="路径 189" fill-rule="evenodd" style="fill:#95A4AD" opacity="1" d="M15.945 2.66ZM3.60501 0C2.07501 -0.04 0.72501 0.9 0.13501 2.25L15.945 2.66C15.445 1.26 14.185 0.27 12.605 0.23L3.60501 0Z"></path><path id="路径 190" fill-rule="evenodd" style="fill:#95A4AD" opacity="1" d="M0 4.59453ZM12.38 7.43453C14 7.47453 15.4 6.44453 15.9 5.00453L0 4.59453C0.41 6.08453 1.76 7.16453 3.38 7.20453L12.38 7.43453Z"></path></g><g opacity="1"  transform="translate(61.2047119140625 40.891082763671875)"><path  id="路径 192" style="fill:#95A4AD; opacity:1;" d="M165.236 5.55624L163.436 9.96624L162.51 9.58834L162.652 8.5984L206.822 14.9084L206.539 16.8883L161.1 10.397L163.385 4.80045L165.236 5.55624Z"></path><path  id="直线 4" style="fill:#95A4AD; opacity:1;" d="M212.258 29.6097L191.68 47.9816L190.348 46.4897L210.926 28.1178L212.258 29.6097Z"></path><path  id="路径 193" style="fill:#95A4AD; opacity:1;" d="M5.15905 0.476733L1.05905 8.03673L0.18 7.56L1.17995 7.57012L0.999949 25.3601L0 25.35L0.993384 25.2352L0 25.35L0.993384 25.2352Q1.33432 28.1843 2.45682 32.1995Q4.69415 40.2025 8.55147 45.372Q13.1954 51.6219 15.3307 64.1153Q16.39 70.3128 16.5396 75.3L15.54 75.33L15.54 74.33L143.73 74.33L143.73 75.33L142.779 75.6386L143.73 75.33L142.779 75.6386Q138.698 63.0584 140.181 37.6564Q140.92 24.9976 142.471 14.7996L142.471 14.7995L142.493 14.6562L146.025 7.13497L146.93 7.56L146.877 8.5586L4.22708 0.998599L4.28 0L5.15905 0.476733ZM3.70211 -1.03203L148.467 6.64004L144.365 15.375L143.46 14.95L144.449 15.1005L144.449 15.1004Q142.911 25.2065 142.177 37.773Q140.716 62.7993 144.681 75.0214L145.106 76.33L144.681 75.0214L145.106 76.33L14.5695 76.33L14.5404 75.36Q14.395 70.5122 13.3593 64.4522Q11.3046 52.4306 6.94853 46.568Q2.86834 41.0999 0.530676 32.738Q-0.63432 28.5707 -0.993384 25.4648L-1.00058 25.4026L-0.993384 25.4648L-1.00058 25.4026L-0.817436 7.30156L3.40095 -0.476733L3.70211 -1.03203Z"></path><path  id="路径 194" style="fill:#95A4AD; opacity:1;" d="M67.6671 3.63982L64.6971 11.5198L63.7614 11.1671L64.7612 11.1497L63.7614 11.1671L64.7612 11.1497Q64.9085 19.6022 65.3142 29.1472Q66.1227 48.1669 67.3944 53.5367Q68.6769 58.9452 70.2135 63.4265Q70.9759 65.6499 71.4762 66.7834L71.589 67.039L70.963 71.856L69.9714 71.7271L70.9381 71.4713L71.9281 75.2113L69.9946 75.723L68.9544 71.7931L69.5697 67.0583L70.5614 67.1871L69.6465 67.5909Q69.1117 66.3793 68.3217 64.0753Q66.7533 59.5016 65.4483 53.9976Q64.1326 48.4424 63.316 29.2321Q62.9092 19.6621 62.7615 11.1846L62.7582 10.9934L62.7615 11.1846L62.7582 10.9934L65.7956 2.93446L67.6671 3.63982Z"></path></g><path id="路径 195" fill-rule="evenodd" style="fill:#161616" opacity="1" d="M64.8522 42.0193ZM208.132 48.4093C208.132 48.4093 198.772 36.4293 193.542 31.3893C187.782 25.8093 180.672 17.5693 166.302 11.1293C151.942 4.72932 131.272 6.03932 120.692 7.92932C110.102 9.81932 92.8622 14.3693 80.7522 23.6493C68.6322 32.9193 64.8522 42.0193 64.8522 42.0193L208.132 48.4093Z"></path><path id="路径 196" fill-rule="evenodd" style="fill:#3C4242" opacity="1" d="M72.9124 38.5018ZM199.402 43.6418L186.702 29.6318C186.702 29.6318 175.172 18.7818 162.472 13.6518C149.772 8.51179 131.582 9.55179 122.222 11.0818C112.852 12.6118 97.6324 16.2618 86.9624 23.7318C76.2424 31.2118 72.9124 38.5018 72.9124 38.5018L199.402 43.6418Z"></path><path id="路径 197" fill-rule="evenodd" style="fill:#3C4242" opacity="1" d="M175.219 7.02908ZM225.559 46.2091C236.729 42.2391 311.299 44.4891 311.299 44.4891C280.449 20.0891 249.969 9.68908 249.969 9.68908L175.219 7.02908C194.309 15.5391 225.559 46.2091 225.559 46.2091Z"></path><g opacity="1"  transform="translate(7.48687744140625 47.150115966796875)"><path id="路径 198" fill-rule="evenodd" style="fill:#A01638" opacity="1" d="M6.12 0.0488947ZM1.71 14.2789C2.02 14.2789 10.04 13.7389 14.59 8.41889L6.12 0.0488947C6.12 0.0488947 -0.86 -0.451105 0.09 7.47889C0.9 14.2789 1.71 14.2789 1.71 14.2789Z"></path><path id="路径 199" fill-rule="evenodd" style="fill:#B92E4D" opacity="1" d="M0.0448413 6.8ZM14.5448 8.42L14.5848 8.38L6.12484 0C6.12484 0.05 -0.365159 -0.41 0.0448413 6.8C2.47484 7.88 6.43484 8.6 10.8948 8.6C12.1548 8.6 13.3748 8.56 14.5448 8.42Z"></path><path id="路径 200" fill-rule="evenodd" style="fill:#C67186" opacity="1" d="M5.58288 4.19067ZM6.43288 1.44067C4.45288 1.58067 3.87288 3.47067 5.58288 4.19067C8.06288 5.27067 12.2929 6.98067 12.2929 6.98067C12.2929 6.98067 6.48288 1.40067 6.43288 1.44067Z"></path></g><path id="路径 201" fill-rule="evenodd" style="fill:#CBD8DE" opacity="1" d="M330.841 78.7607ZM303.281 115.101C302.291 116.941 303.871 119.111 306.211 119.111L395.011 119.111C396.671 119.111 397.981 117.851 397.801 116.401L394.151 83.8506C393.841 80.9706 391.091 78.7607 387.801 78.7607L330.841 78.7607C325.531 78.7607 320.711 81.5107 318.501 85.7806L303.281 115.101Z"></path><path id="矩形 35" fill-rule="evenodd" style="fill:#161616" opacity="1" d="M317.646 71.5554L380.106 71.5554L380.106 62.9554L317.646 62.9554L317.646 71.5554Z"></path><path id="路径 202" fill-rule="evenodd" style="fill:#3C4242" opacity="1" d="M379.881 71.5146ZM386.311 61.6946L379.201 62.9146L379.881 71.5146L388.611 71.2846C388.301 66.1546 387.131 63.1846 386.311 61.6946Z"></path><path id="路径 203" fill-rule="evenodd" style="fill:#E2EFF6" opacity="1" d="M387.213 63.8109ZM382.893 69.2109L388.433 69.1209C388.113 66.8709 387.663 65.1209 387.213 63.8109L382.173 64.3109L382.893 69.2109Z"></path><g opacity="1"  transform="translate(254.6053466796875 54.89515686035156)"><path id="路径 204" fill-rule="evenodd" style="fill:#3C4242" opacity="1" d="M42.55 25.62ZM39 16.26L64.98 16.66L63 8.06L31.25 4.5L0 0C8.51 11.48 24.05 20.71 24.05 20.71L42.55 25.62L39 16.26Z"></path><path id="路径 205" fill-rule="evenodd" style="fill:#F2FAFF" opacity="1" d="M10.4918 3.87253ZM36.5618 21.1625L34.1818 13.6025L59.5718 14.8625L58.0418 9.36253L31.9218 6.75253L10.4918 3.87253C15.3118 11.3425 26.4318 17.5125 26.4318 17.5125L36.5618 21.1625Z"></path><path id="路径 206" fill-rule="evenodd" style="fill:#95A4AD" opacity="1" d="M53.8085 14.4952ZM20.6685 8.0152C23.7285 14.3152 24.2685 15.8552 27.7785 18.0152L36.8385 21.1152L34.3985 13.5552L53.8085 14.4952L52.7785 11.4852L20.6685 8.0152Z"></path></g><path id="路径 207" fill-rule="evenodd" style="fill:#F2FAFF" opacity="1" d="M287.565 112.716ZM293.015 118.836C303.775 119.376 316.745 118.566 316.745 118.566L336.605 102.176L328.225 101.996L312.785 112.936L287.565 112.716L283.155 112.986C283.155 112.986 282.255 118.296 293.015 118.836Z"></path><path id="路径 208" fill-rule="evenodd" style="fill:#3C4242" opacity="1" d="M335.116 84.0291ZM324.396 90.0591L311.206 115.549C310.356 117.219 311.706 119.059 313.726 119.059L390.816 119.059C392.256 119.059 393.386 117.979 393.246 116.719L390.096 88.4391C389.786 85.9191 387.396 84.0291 384.556 84.0291L335.116 84.0291C330.526 84.0291 326.296 86.4191 324.396 90.0591Z"></path><path id="路径 209" fill-rule="evenodd" style="fill:#161616" opacity="1" d="M337.905 87.8565ZM319.045 117.167L386.995 117.167C388.255 117.167 389.245 116.227 389.105 115.187L386.315 91.5465C386.095 89.4365 383.975 87.8565 381.455 87.8565L337.905 87.8565C333.855 87.8565 330.165 89.8365 328.405 92.9465L316.795 114.247C316.075 115.637 317.245 117.167 319.045 117.167Z"></path><g opacity="1"  transform="translate(279.643310546875 94.65594482421875)"><path id="路径 210" fill-rule="evenodd" style="fill:#3C4242" opacity="1" d="M19.99 24.27ZM5.58 24.45L19.95 24.45C19.99 24.41 19.99 24.32 19.99 24.27L12.65 23.64C9.14 23.64 6.66 21.12 7.83 18.69L15.08 3.74C15.8 2.25 16.21 1.71 18.6 1.17C20.26 0.77 23.64 0.23 25.35 0L13.51 0C11.12 0 9 1.08 8.24 2.7L0.31 19.05C-0.95 21.7 1.75 24.45 5.58 24.45Z"></path></g><g opacity="1"  transform="translate(282.5701904296875 94.65594482421875)"><path id="路径 211" fill-rule="evenodd" style="fill:#3C4242" opacity="1" d="M19.99 24.27ZM12.65 23.64C9.14 23.64 6.66 21.12 7.83 18.69L15.08 3.74C15.8 2.25 16.21 1.71 18.6 1.17C20.26 0.77 23.64 0.23 25.35 0L13.51 0C11.12 0 9 1.08 8.24 2.7L0.31 19.05C-0.95 21.7 1.75 24.45 5.58 24.45L19.95 24.45C19.95 24.41 19.99 24.32 19.99 24.27L12.65 23.64Z"></path></g><path id="路径 212" fill-rule="evenodd" style="fill:#161616" opacity="1" d="M76.3774 33.3753ZM73.3174 38.5452L126.177 40.7152L129.107 30.2652C115.197 26.5752 78.9874 32.9253 76.3774 33.3753C73.9474 36.3853 73.0074 38.4152 72.9574 38.5052L73.3174 38.5452Z"></path><path id="路径 213" fill-rule="evenodd" style="fill:#161616" opacity="1" d="M291.981 40.0379ZM284.911 36.7979C280.411 35.7579 263.431 32.0179 256.321 33.4179L239.611 39.7679L291.981 40.0379L286.981 37.5579C286.311 37.2479 285.631 36.9779 284.911 36.7979Z"></path><path id="路径 214" fill-rule="evenodd" style="fill:#161616" opacity="1" d="M299.855 40.2633ZM225.565 46.2033C235.065 42.8233 290.675 43.9533 306.885 44.3633L299.855 40.2633C299.855 40.2633 251.225 36.6633 215.295 36.6133C221.465 42.1533 225.565 46.2033 225.565 46.2033Z"></path><path id="路径 215" fill-rule="evenodd" style="fill:#161616" opacity="1" d="M214.526 10.4513ZM216.776 24.0513C219.796 31.4813 220.696 40.2113 220.696 40.2113L230.696 39.0013C230.696 39.0013 224.026 26.1713 221.596 21.8913C219.976 19.0113 214.526 10.4513 214.526 10.4513L209.936 10.9913C209.936 10.9913 215.476 20.7613 216.776 24.0513Z"></path><path id="路径 216" fill-rule="evenodd" style="fill:#161616" opacity="1" d="M237.988 42.4244ZM253.348 40.1744C253.348 40.9844 253.208 41.7444 252.938 42.4244L255.328 42.4244C255.508 41.7044 255.638 40.9344 255.638 40.1744C255.638 34.9444 251.098 30.7144 245.468 30.7144C239.838 30.7144 235.288 34.9444 235.288 40.1744C235.288 40.9344 235.378 41.7044 235.608 42.4244L237.988 42.4244C237.718 41.7044 237.588 40.9344 237.588 40.1744C237.588 36.1144 241.098 32.8344 245.468 32.8344C249.828 32.8344 253.348 36.1144 253.348 40.1744Z"></path><path id="路径 217" fill-rule="evenodd" style="fill:#161616" opacity="1" d="M195.302 18.2414ZM206.472 26.3914C206.832 24.0014 204.982 21.3014 203.682 19.7314C203.052 18.9214 202.052 18.4714 201.022 18.4214L195.302 18.2414L206.472 26.3914Z"></path><path id="路径 218" fill-rule="evenodd" style="fill:#161616" opacity="1" d="M193.234 43.4568ZM129.244 40.7568L193.234 43.4568L196.024 40.0368L186.654 29.7268C186.654 29.7268 185.934 29.0468 184.674 27.9668L177.204 33.5068L170.224 33.2368C170.224 33.2368 166.434 29.6368 165.764 29.7268C165.134 29.8168 158.424 29.6368 158.424 29.6368L157.114 23.5968L164.724 15.0468L160.674 13.0168C160.184 12.8368 159.684 12.7068 159.184 12.5268L153.114 11.2168L144.874 17.8768C144.874 17.8768 140.324 18.1468 138.834 20.6768C137.354 23.1968 136.894 25.3968 136.894 25.3968L131.314 28.9168L129.244 40.7568Z"></path><path id="路径 219" fill-rule="evenodd" style="fill:#161616" opacity="1" d="M248.574 14.6791ZM311.794 44.5791C280.944 20.1791 250.464 9.77914 250.464 9.77914L175.714 7.11914C178.644 8.42914 181.884 10.2691 185.264 12.4291L248.574 14.6791C248.574 14.6791 274.734 23.6491 303.144 44.3591C308.504 44.4891 311.794 44.5791 311.794 44.5791Z"></path><path id="路径 220" fill-rule="evenodd" style="fill:#161616" opacity="1" d="M91.6903 36.345ZM96.2403 31.025C96.0103 28.325 93.6303 26.255 90.9203 26.485L84.7503 26.935C82.0503 27.155 79.9803 29.545 80.2103 32.245C80.4303 34.945 82.8203 37.015 85.5203 36.795L91.6903 36.345C94.4403 36.115 96.4603 33.735 96.2403 31.025Z"></path><path id="路径 221" fill-rule="evenodd" style="fill:#161616" opacity="1" d="M124.332 34.7198ZM129.742 28.4198C129.472 25.1798 126.682 22.7898 123.432 23.0098L115.512 23.5998C112.272 23.8698 109.882 26.6598 110.102 29.8998C110.372 33.1498 113.172 35.5298 116.412 35.3098L124.332 34.7198C127.532 34.4998 129.962 31.6598 129.742 28.4198Z"></path><path id="路径 222" fill-rule="evenodd" style="fill:#161616" opacity="1" d="M134.779 7.56943ZM128.929 22.4694C126.949 28.0094 121.679 44.5394 121.679 44.5394L132.129 44.5394C132.129 44.5394 131.989 33.8194 134.149 24.3694C135.099 20.1794 139.599 7.56943 139.599 7.56943L134.779 7.56943C134.779 7.56943 130.189 18.7794 128.929 22.4694Z"></path><path id="路径 223" fill-rule="evenodd" style="fill:#161616" opacity="1" d="M90.6084 18.6466ZM86.8684 28.1466C85.6084 31.6166 82.2784 42.1066 82.2784 42.1066L88.8984 42.1066C88.8984 42.1066 88.8084 35.3066 90.2084 29.3166C90.8384 26.6666 93.6684 18.6466 93.6684 18.6466L90.6084 18.6466C90.6084 18.6466 87.6784 25.7566 86.8684 28.1466Z"></path><g opacity="1"  transform="translate(175.21875 7.0290985107421875)"><path id="路径 224" fill-rule="evenodd" style="fill:#161616" opacity="1" d="M3.69 0.14ZM50.34 39.18C51.02 38.95 51.96 38.73 53.09 38.5C48.45 34.04 21.16 8.06 3.69 0.14L0 0C19.14 8.51 50.34 39.18 50.34 39.18Z"></path></g><path id="路径 225" fill-rule="evenodd" style="fill:#161616" opacity="1" d="M281.578 29.1384ZM286.978 40.7984L301.888 42.5584C301.888 42.5584 292.208 35.4384 281.578 29.1384L286.978 40.7984Z"></path><path id="路径 226" fill-rule="evenodd" style="fill:#161616" opacity="1" d="M182.512 25.8513ZM179.812 44.9913L202.412 46.1113C202.412 46.1113 194.672 35.1713 182.512 25.8513L179.812 44.9913Z"></path><g opacity="1"  transform="translate(167.4730224609375 32.33551025390625)"><path id="路径 227" fill-rule="evenodd" style="fill:#303435" opacity="1" d="M33.5437 11.4399ZM21.7537 7.60992C19.7237 7.60992 18.0537 9.27992 17.9637 11.2999C17.8737 13.3699 19.4537 15.0399 21.4837 15.0799L29.7637 15.1299C31.7937 15.1699 33.4537 13.5099 33.5437 11.4399C33.6337 9.36992 32.0637 7.69992 30.0337 7.65992L21.7537 7.60992Z"></path><path id="路径 228" fill-rule="evenodd" style="fill:#DFECF2" opacity="1" d="M7.20319 0ZM7.20319 16.17L24.2232 16.17L29.0032 9.68C29.6732 8.74 29.6732 7.43 29.0032 6.48L23.7332 0.95C23.1432 0.36 22.3332 0 21.4832 0L7.20319 0C5.27319 0 3.46319 0.99 2.43319 2.61L0.903193 5.04C-0.266807 6.89 -0.266807 9.28 0.903193 11.12L2.43319 13.55C3.46319 15.17 5.27319 16.17 7.20319 16.17Z"></path><path id="路径 229" fill-rule="evenodd" style="fill:#CBD8DE" opacity="1" d="M8.29 12.5146ZM0.45 7.47457C0.32 7.34457 0.23 7.16457 0.14 7.02457C-0.18 8.46457 0.05 9.99457 0.9 11.2546L2.43 13.6846C3.47 15.3146 5.27 16.3046 7.21 16.3046L24.23 16.3046L27.02 12.5146L8.29 12.5146C5.9 12.5146 3.69 11.5246 2.39 9.90457L0.45 7.47457Z"></path></g></g></svg>